<svg width="26" height="21" viewBox="0 0 26 21" fill="none" xmlns="http://www.w3.org/2000/svg">
<mask id="mask0_2_273" style="mask-type:alpha" maskUnits="userSpaceOnUse" x="1" y="0" width="24" height="16">
<path fill-rule="evenodd" clip-rule="evenodd" d="M13 0.5C8 0.5 3.73 3.61 2 8C3.73 12.39 8 15.5 13 15.5C18 15.5 22.27 12.39 24 8C22.27 3.61 18 0.5 13 0.5ZM13 13C10.24 13 8 10.76 8 8C8 5.24 10.24 3 13 3C15.76 3 18 5.24 18 8C18 10.76 15.76 13 13 13ZM13 5C11.34 5 10 6.34 10 8C10 9.66 11.34 11 13 11C14.66 11 16 9.66 16 8C16 6.34 14.66 5 13 5Z" fill="white"/>
<path d="M2 8L1.53482 7.81668L1.46258 8L1.53482 8.18332L2 8ZM24 8L24.4652 8.18332L24.5374 8L24.4652 7.81668L24 8ZM13 0C7.78697 0 3.33728 3.24281 1.53482 7.81668L2.46518 8.18332C4.12272 3.97719 8.21303 1 13 1V0ZM1.53482 8.18332C3.33728 12.7572 7.78697 16 13 16V15C8.21303 15 4.12272 12.0228 2.46518 7.81668L1.53482 8.18332ZM13 16C18.213 16 22.6627 12.7572 24.4652 8.18332L23.5348 7.81668C21.8773 12.0228 17.787 15 13 15V16ZM24.4652 7.81668C22.6627 3.24281 18.213 0 13 0V1C17.787 1 21.8773 3.97719 23.5348 8.18332L24.4652 7.81668ZM13 12.5C10.5161 12.5 8.5 10.4839 8.5 8H7.5C7.5 11.0361 9.96386 13.5 13 13.5V12.5ZM8.5 8C8.5 5.51614 10.5161 3.5 13 3.5V2.5C9.96386 2.5 7.5 4.96386 7.5 8H8.5ZM13 3.5C15.4839 3.5 17.5 5.51614 17.5 8H18.5C18.5 4.96386 16.0361 2.5 13 2.5V3.5ZM17.5 8C17.5 10.4839 15.4839 12.5 13 12.5V13.5C16.0361 13.5 18.5 11.0361 18.5 8H17.5ZM13 4.5C11.0639 4.5 9.5 6.06386 9.5 8H10.5C10.5 6.61614 11.6161 5.5 13 5.5V4.5ZM9.5 8C9.5 9.93614 11.0639 11.5 13 11.5V10.5C11.6161 10.5 10.5 9.38386 10.5 8H9.5ZM13 11.5C14.9361 11.5 16.5 9.93614 16.5 8H15.5C15.5 9.38386 14.3839 10.5 13 10.5V11.5ZM16.5 8C16.5 6.06386 14.9361 4.5 13 4.5V5.5C14.3839 5.5 15.5 6.61614 15.5 8H16.5Z" fill="white"/>
</mask>
<g mask="url(#mask0_2_273)">
<rect y="-5" width="26" height="26" fill="#191919"/>
</g>
</svg>
